<svg width="97" height="97" viewBox="0 0 97 97" fill="none" xmlns="http://www.w3.org/2000/svg">
<path d="M54.7135 29.5547C54.7135 29.5547 60.0182 30.6156 60.1697 34.8594C60.1697 34.8594 65.0197 35.7688 63.5041 41.5281C63.5041 41.5281 67.1416 44.2563 65.9291 50.6219C65.9291 50.6219 70.9307 53.9563 65.3229 59.1094V59.7156C65.3229 59.7156 66.0807 63.8078 61.2307 67.2938C61.2307 67.2938 59.2604 68.961 55.926 72.9016C54.4104 74.8719 49.2572 76.9938 46.6807 69.4156V30.9188C47.1354 30.9188 50.3182 24.7047 54.7135 29.5547Z" fill="#D1D3D4"/>
<path d="M38.4968 29.5547C38.4968 29.5547 33.1921 30.6156 33.0405 34.8594C33.0405 34.8594 28.1905 35.7688 29.7062 41.5281C29.7062 41.5281 26.0687 44.2563 27.2812 50.6219C27.2812 50.6219 22.2796 53.9563 27.8874 59.1094V59.7156C27.8874 59.7156 27.1296 63.8078 31.9796 67.2938C31.9796 67.2938 33.9499 68.961 37.2843 72.9016C38.7999 74.8719 43.953 76.9938 46.5296 69.4156V30.9188C46.0749 30.9188 42.8921 24.7047 38.4968 29.5547Z" fill="#36D7B7"/>
<path d="M60.7759 44.7109C59.5634 45.4688 58.1994 45.7719 56.8353 45.4688C55.4712 45.1656 54.4103 44.4078 53.5009 43.3469C52.7431 42.1344 52.44 40.7703 52.7431 39.4062" stroke="#414042" stroke-miterlimit="10"/>
<path d="M56.8355 57.8969C55.623 58.6547 54.2589 58.9578 52.8949 58.6547C51.5308 58.3515 50.4699 57.5937 49.5605 56.5328C48.8027 55.3203 48.4996 53.9562 48.8027 52.5922" stroke="#414042" stroke-miterlimit="10"/>
<path d="M65.6262 58.9578C64.4137 58.9578 63.5043 58.3516 62.7465 57.5937C61.9887 56.8359 61.6855 55.775 61.6855 54.5625C61.6855 53.35 62.2918 52.4406 63.0496 51.6828" stroke="#414042" stroke-miterlimit="10"/>
<path d="M53.0469 50.7734C52.1375 49.7125 51.6828 48.5 51.8344 46.9843C51.9859 45.6203 52.5922 44.2562 53.6531 43.4984" stroke="#414042" stroke-miterlimit="10"/>
<path d="M62.2916 57.139C61.8369 55.9265 60.9275 54.8656 59.715 54.2594C58.5025 53.6531 56.9869 53.6531 55.7744 54.1078" stroke="#414042" stroke-miterlimit="10"/>
<path d="M56.5324 37.5875C55.623 36.6781 54.8652 35.4656 54.8652 33.95C54.8652 32.5859 55.3199 31.2219 56.2293 30.1609" stroke="#414042" stroke-miterlimit="10"/>
<path d="M49.7119 37.7391C51.076 37.7391 52.2885 37.2844 53.3494 36.2234C54.4104 35.1625 54.865 33.95 54.865 32.5859" stroke="#414042" stroke-miterlimit="10"/>
<path d="M50.4697 70.9313C51.5307 69.8703 52.7432 69.4156 54.1072 69.4156C55.4713 69.4156 56.6838 69.8703 57.7447 70.9313" stroke="#414042" stroke-miterlimit="10"/>
<path d="M52.8947 62.8984C52.44 64.2625 52.44 65.6266 52.8947 66.8391C53.3494 68.0516 54.4103 69.1125 55.7744 69.5672" stroke="#414042" stroke-miterlimit="10"/>
<path d="M32.4336 44.7109C33.6461 45.4688 35.0102 45.7719 36.3742 45.4688C37.7383 45.1656 38.7992 44.4078 39.7086 43.3469C40.4664 42.1344 40.7695 40.7703 40.4664 39.4062" stroke="#414042" stroke-miterlimit="10"/>
<path d="M36.375 57.8969C37.5875 58.6547 38.9516 58.9578 40.3156 58.6547C41.6797 58.3515 42.7406 57.5937 43.65 56.5328C44.4078 55.3203 44.7109 53.9562 44.4078 52.5922" stroke="#414042" stroke-miterlimit="10"/>
<path d="M27.584 58.9578C28.7965 58.9578 29.7059 58.3516 30.4637 57.5937C31.2215 56.8359 31.5246 55.775 31.5246 54.5625C31.5246 53.35 30.9184 52.4406 30.1605 51.6828" stroke="#414042" stroke-miterlimit="10"/>
<path d="M40.1639 50.7734C41.0732 49.7125 41.5279 48.5 41.3764 46.9843C41.2248 45.6203 40.6186 44.2562 39.5576 43.4984" stroke="#414042" stroke-miterlimit="10"/>
<path d="M30.918 57.139C31.3727 55.9265 32.282 54.8656 33.4945 54.2594C34.707 53.6531 36.2227 53.6531 37.4352 54.1078" stroke="#414042" stroke-miterlimit="10"/>
<path d="M36.6777 37.5875C37.5871 36.6781 38.3449 35.4656 38.3449 33.95C38.3449 32.5859 37.8902 31.2219 36.9809 30.1609" stroke="#414042" stroke-miterlimit="10"/>
<path d="M43.4979 37.8906C42.1338 37.8906 40.9213 37.4359 39.8604 36.375C38.7994 35.314 38.3447 34.1016 38.3447 32.7375" stroke="#414042" stroke-miterlimit="10"/>
<path d="M42.7398 70.9313C41.6789 69.8703 40.4664 69.4156 39.1023 69.4156C37.7383 69.4156 36.5258 69.8703 35.4648 70.9313" stroke="#414042" stroke-miterlimit="10"/>
<path d="M40.3152 62.8984C40.7699 64.2625 40.7699 65.6266 40.3152 66.8391C39.8605 68.0516 38.7996 69.1125 37.4355 69.5672" stroke="#414042" stroke-miterlimit="10"/>
<path d="M18.1875 27.736H20.0062" stroke="#414042" stroke-miterlimit="10"/>
<path d="M23.0371 27.736H25.0074" stroke="#414042" stroke-miterlimit="10"/>
<path d="M21.5215 31.0703V29.2516" stroke="#414042" stroke-miterlimit="10"/>
<path d="M21.5215 26.2203V24.25" stroke="#414042" stroke-miterlimit="10"/>
<path d="M71.082 68.2031H73.3555" stroke="#414042" stroke-miterlimit="10"/>
<path d="M76.9932 68.2031H79.2666" stroke="#414042" stroke-miterlimit="10"/>
<path d="M75.1738 72.2953V70.0219" stroke="#414042" stroke-miterlimit="10"/>
<path d="M75.1738 66.3844V64.2625" stroke="#414042" stroke-miterlimit="10"/>
<path d="M41.9824 19.2484H44.2559" stroke="#414042" stroke-miterlimit="10"/>
<path d="M47.8936 19.2484H50.167" stroke="#414042" stroke-miterlimit="10"/>
<path d="M46.0742 23.3406V21.0672" stroke="#414042" stroke-miterlimit="10"/>
<path d="M46.0742 17.4297V15.1562" stroke="#414042" stroke-miterlimit="10"/>
<path d="M22.4307 78.3578H24.401" stroke="#414042" stroke-miterlimit="10"/>
<path d="M27.4326 78.3578H29.4029" stroke="#414042" stroke-miterlimit="10"/>
<path d="M25.917 81.8438V79.8735" stroke="#414042" stroke-miterlimit="10"/>
<path d="M25.917 76.6906V74.7203" stroke="#414042" stroke-miterlimit="10"/>
<path d="M33.04 26.675H34.4041" stroke="#414042" stroke-miterlimit="10"/>
<path d="M36.374 26.675H37.7381" stroke="#414042" stroke-miterlimit="10"/>
<path d="M35.4648 28.9484V27.5844" stroke="#414042" stroke-miterlimit="10"/>
<path d="M35.4648 25.6141V24.25" stroke="#414042" stroke-miterlimit="10"/>
<path d="M57.7451 79.4188H59.1092" stroke="#414042" stroke-miterlimit="10"/>
<path d="M61.0791 79.4188H62.4432" stroke="#414042" stroke-miterlimit="10"/>
<path d="M60.1699 81.6922V80.4797" stroke="#414042" stroke-miterlimit="10"/>
<path d="M60.1699 78.3578V77.1453" stroke="#414042" stroke-miterlimit="10"/>
<path d="M17.7324 60.0187H19.0965" stroke="#414042" stroke-miterlimit="10"/>
<path d="M21.0664 60.0187H22.4305" stroke="#414042" stroke-miterlimit="10"/>
<path d="M20.0059 62.2921V61.0797" stroke="#414042" stroke-miterlimit="10"/>
<path d="M20.0059 58.9578V57.7453" stroke="#414042" stroke-miterlimit="10"/>
<path d="M65.626 37.8906H66.8385" stroke="#414042" stroke-miterlimit="10"/>
<path d="M68.96 37.8906H70.1725" stroke="#414042" stroke-miterlimit="10"/>
<path d="M67.8994 40.164V38.8" stroke="#414042" stroke-miterlimit="10"/>
<path d="M67.8994 36.8297V35.6172" stroke="#414042" stroke-miterlimit="10"/>
<path d="M21.0664 41.9828C21.9035 41.9828 22.582 41.3042 22.582 40.4672C22.582 39.6301 21.9035 38.9515 21.0664 38.9515C20.2293 38.9515 19.5508 39.6301 19.5508 40.4672C19.5508 41.3042 20.2293 41.9828 21.0664 41.9828Z" stroke="#414042" stroke-miterlimit="10"/>
<path d="M64.5652 26.9781C65.3186 26.9781 65.9293 26.3674 65.9293 25.6141C65.9293 24.8607 65.3186 24.25 64.5652 24.25C63.8119 24.25 63.2012 24.8607 63.2012 25.6141C63.2012 26.3674 63.8119 26.9781 64.5652 26.9781Z" stroke="#414042" stroke-miterlimit="10"/>
<path d="M73.8104 53.0468C74.5637 53.0468 75.1744 52.4361 75.1744 51.6828C75.1744 50.9294 74.5637 50.3187 73.8104 50.3187C73.057 50.3187 72.4463 50.9294 72.4463 51.6828C72.4463 52.4361 73.057 53.0468 73.8104 53.0468Z" stroke="#414042" stroke-miterlimit="10"/>
<path d="M44.4078 80.6312C45.0775 80.6312 45.6203 80.0884 45.6203 79.4187C45.6203 78.7491 45.0775 78.2062 44.4078 78.2062C43.7382 78.2062 43.1953 78.7491 43.1953 79.4187C43.1953 80.0884 43.7382 80.6312 44.4078 80.6312Z" stroke="#414042" stroke-miterlimit="10"/>
</svg>
